<svg width="56" height="56" viewBox="0 0 56 56" fill="none" xmlns="http://www.w3.org/2000/svg">
<path d="M38.2378 8.00044C34.8078 7.88527 12.5406 30.4972 7.54777 41.8879C10.5007 41.0213 13.9196 40.2221 16.5603 40.4656C19.0315 40.6934 21.025 42.1362 22.887 43.3753C24.7488 44.6145 26.4498 45.6397 28.2085 45.6083C29.9998 45.5765 31.7299 44.3242 33.6228 42.889C35.5156 41.4538 37.5794 39.8326 40.215 39.847C40.8814 39.8507 41.5709 39.9505 42.2702 40.121C36.1261 29.159 39.9274 8.42788 38.3259 8.00875C38.2967 8.00424 38.2673 8.00154 38.2378 8.00066V8.00044ZM40.5988 42.1659C37.9632 42.1517 35.8994 43.7726 34.0066 45.208C32.1137 46.6433 30.3836 47.8956 28.5923 47.9275C26.8335 47.9588 25.1328 46.9337 23.2708 45.6945C21.4089 44.4552 19.4153 43.0126 16.9441 42.7847C14.167 42.5288 10.5281 43.4257 7.47689 44.3416C4.42588 45.2573 2.00049 46.2316 2.00049 46.2316L2.73396 48.0584C2.73396 48.0584 5.08464 47.1151 8.04302 46.2271C11.0013 45.339 14.6055 44.546 16.7635 44.7451C18.5438 44.9091 20.2939 46.0779 22.1801 47.3332C24.0661 48.5884 26.1176 49.9405 28.6273 49.8959C31.257 49.8488 33.3078 48.2084 35.196 46.7767C37.0843 45.345 38.8021 44.1249 40.5882 44.1347C42.4906 44.1449 45.6221 45.5945 48.1298 47.1129C50.6376 48.6313 52.5772 50.1475 52.5772 50.1475L53.7902 48.597C53.7902 48.597 51.7694 47.015 49.1494 45.4288C46.5295 43.8424 43.366 42.1808 40.5987 42.1657L40.5988 42.1659ZM40.8077 46.6634C38.1721 46.649 36.1083 48.2701 34.2155 49.7053C32.3226 51.1406 30.5925 52.3929 28.8012 52.4248C27.0424 52.4561 25.3417 51.431 23.4797 50.1918C21.6178 48.9526 19.6242 47.51 17.153 47.282C14.3759 47.0261 10.737 47.923 7.6858 48.8389C4.63478 49.7548 2.20939 50.7289 2.20939 50.7289L2.94308 52.5558C2.94308 52.5558 5.29355 51.6126 8.25182 50.7248C11.2102 49.8367 14.8145 49.0437 16.9723 49.2426C18.7529 49.4066 20.5029 50.5755 22.389 51.8308C24.275 53.0861 26.3265 54.4383 28.8362 54.3935C31.466 54.3465 33.5169 52.7062 35.4053 51.2743C37.2934 49.8426 39.0109 48.6225 40.797 48.6323C42.6995 48.6427 45.831 50.0922 48.3387 51.6105C50.8465 53.129 52.7861 54.6455 52.7861 54.6455L53.9993 53.0949C53.9993 53.0949 51.9785 51.5129 49.3586 49.9265C46.7385 48.3401 43.5748 46.6785 40.8076 46.6634H40.8077Z" fill="white"/>
</svg>
