<svg width="56" height="56" viewBox="0 0 56 56" fill="none" xmlns="http://www.w3.org/2000/svg">
<path d="M27.9737 4.89612C27.2983 4.89612 26.6226 5.04749 26.0994 5.35024L9.39203 15.0146C8.34531 15.6201 8.34531 16.5776 9.39203 17.1831L26.0994 26.8475C27.1461 27.453 28.8013 27.453 29.8479 26.8475L46.5553 17.1831C47.602 16.5777 47.602 15.6201 46.5553 15.0147L29.8479 5.35035C29.3245 5.04738 28.6491 4.89612 27.9737 4.89612ZM27.8836 10.705C28.8694 10.7156 29.7558 10.9415 30.5425 11.3823C31.0807 11.6839 31.4332 12.0279 31.5997 12.4146C31.7609 12.7981 31.7704 13.3038 31.6282 13.931L31.4532 14.5551C31.3372 15.0017 31.3132 15.3229 31.381 15.5187C31.4433 15.7117 31.5979 15.8773 31.845 16.0157L32.2158 16.2233L28.5807 18.2599L28.1768 18.0338C27.7263 17.7816 27.4391 17.4966 27.3145 17.1785C27.1846 16.8575 27.2063 16.3469 27.3795 15.6467L27.5462 15.018C27.6432 14.6436 27.6526 14.3366 27.5746 14.0973C27.5032 13.854 27.3412 13.6616 27.0886 13.5201C26.7041 13.3046 26.2435 13.2274 25.7072 13.2879C25.1651 13.3454 24.6055 13.536 24.0283 13.8594C23.4845 14.164 22.9906 14.5454 22.5462 15.0035C22.0965 15.4587 21.7106 15.9795 21.3883 16.5662L18.8016 15.1168C19.3832 14.5327 19.9547 14.0219 20.5161 13.5841C21.0777 13.1466 21.6705 12.7529 22.2948 12.4029C23.9328 11.4852 25.456 10.9394 26.8645 10.7658C27.2025 10.7224 27.5431 10.702 27.8838 10.7049L27.8836 10.705ZM33.4352 16.9066L36.3681 18.5498L32.733 20.5864L29.8 18.9433L33.4352 16.9067V16.9066ZM8.27641 19.0138C7.64717 18.9969 7.21941 19.4881 7.21941 20.3569V37.6049C7.21941 38.8137 8.04738 40.2478 9.09409 40.8523L25.1646 50.1325C26.2113 50.7369 27.0393 50.259 27.0393 49.0503V31.8019C27.0393 30.5931 26.2113 29.1594 25.1646 28.5548L9.09409 19.2747C8.79988 19.1046 8.52261 19.0202 8.27641 19.0136V19.0138ZM47.736 19.014C47.4899 19.0206 47.2128 19.1048 46.9185 19.2749L30.8475 28.555C29.8008 29.1595 28.9728 30.5936 28.9728 31.8024V49.0508C28.9728 50.2594 29.8008 50.7371 30.8475 50.1325L46.9186 40.8527C47.9653 40.2482 48.793 38.8144 48.793 37.6056V20.3571C48.793 19.4885 48.3653 18.9974 47.736 19.0142V19.014ZM12.567 25.9869C13.2837 26.1363 13.9383 26.3192 14.5307 26.5352C15.1245 26.752 15.6984 27.0201 16.2457 27.3364C17.6909 28.1709 18.7926 29.1218 19.5508 30.1891C20.309 31.25 20.6881 32.3816 20.6881 33.5841C20.6881 34.201 20.5727 34.6881 20.3416 35.0458C20.1106 35.3971 19.7166 35.6922 19.1599 35.9311L18.5911 36.1411C18.1884 36.2988 17.9247 36.4613 17.8003 36.6289C17.676 36.7899 17.6139 37.0119 17.6139 37.2952V37.7201L14.4064 35.8681V35.4054C14.4064 34.8891 14.504 34.4893 14.6996 34.2056C14.895 33.9155 15.3068 33.6434 15.9346 33.3889L16.5034 33.1694C16.841 33.0371 17.0868 32.8706 17.2408 32.6699C17.4005 32.4727 17.4805 32.2294 17.4805 31.9397C17.4805 31.4993 17.3383 31.074 17.054 30.6644C16.7696 30.2484 16.3729 29.8933 15.8634 29.5991C15.3836 29.3222 14.8653 29.1299 14.3084 29.0225C13.7517 28.9087 13.1712 28.8853 12.567 28.9519V25.9868V25.9869ZM42.0479 26.9283C42.2144 26.9283 42.3686 26.9463 42.5108 26.9822C43.269 27.1677 43.6481 27.8616 43.6481 29.0641C43.6481 29.6809 43.5326 30.3015 43.3016 30.9259C43.0706 31.5439 42.6766 32.2939 42.1199 33.1756L41.5511 34.0423C41.1484 34.6651 40.8847 35.132 40.7603 35.443C40.636 35.7476 40.5739 36.0416 40.5739 36.3249V36.7498L37.3664 38.6018V38.1391C37.3664 37.6229 37.4642 37.1099 37.6596 36.6005C37.8553 36.0848 38.2668 35.3373 38.8946 34.3579L39.4634 33.4818C39.801 32.9594 40.0468 32.509 40.2008 32.1306C40.3605 31.7487 40.4405 31.4129 40.4405 31.1233C40.4405 30.6827 40.2983 30.4217 40.0142 30.3404C39.7298 30.2529 39.3328 30.3559 38.8234 30.6499C38.3436 30.9269 37.8255 31.3335 37.2687 31.8689C36.7119 32.3982 36.1314 33.0449 35.5272 33.8092V30.844C36.2439 30.1659 36.8983 29.5928 37.4905 29.1249C38.083 28.657 38.6548 28.2641 39.2055 27.9461C40.3799 27.268 41.3273 26.9287 42.0481 26.9282L42.0479 26.9283ZM14.4063 37.2659L17.6139 39.1176V42.4793L14.4064 40.6276V37.266L14.4063 37.2659ZM40.5739 38.1474V41.5091L37.3664 43.3608V39.9994L40.574 38.1474H40.5739Z" fill="white"/>
</svg>
